<svg xmlns="http://www.w3.org/2000/svg" version="1.1" xmlns:xlink="http://www.w3.org/1999/xlink" xmlns:svgjs="http://svgjs.dev/svgjs" width="1500" height="477" viewBox="0 0 1500 477"><g transform="matrix(1,0,0,1,-0.9090909090909918,-0.20168642367855227)"><svg viewBox="0 0 396 126" data-background-color="#ffffff" preserveAspectRatio="xMidYMid meet" height="477" width="1500" xmlns="http://www.w3.org/2000/svg" xmlns:xlink="http://www.w3.org/1999/xlink"><g id="tight-bounds" transform="matrix(1,0,0,1,0.2400000000000091,0.05327565908490328)"><svg viewBox="0 0 395.52 125.89344868183017" height="125.89344868183017" width="395.52"><g><svg viewBox="0 0 550.2888603903781 175.15615494978476" height="125.89344868183017" width="395.52"><g transform="matrix(1,0,0,1,154.76886039037814,0)"><svg viewBox="0 0 395.52 175.15615494978476" height="175.15615494978476" width="395.52"><g id="textblocktransform"><svg viewBox="0 0 395.52 175.15615494978476" height="175.15615494978476" width="395.52" id="textblock"><g><svg viewBox="0 0 395.52 175.15615494978476" height="175.15615494978476" width="395.52"><g transform="matrix(1,0,0,1,0,0)"><svg width="395.52" viewBox="0.65 -36.3 104.53999999999999 46.3" height="175.15615494978476" data-palette-color="#3d9970"><path d="M10.5 0.35L10.5 0.35Q7.15 0.35 4.95-0.88 2.75-2.1 1.7-4.08 0.65-6.05 0.65-8.35L0.65-8.35Q0.65-10.4 1.45-12.4 2.25-14.4 3.83-16.05 5.4-17.7 7.65-18.65L7.65-18.65Q5.6-19.95 4.58-21.78 3.55-23.6 3.55-25.6L3.55-25.6Q3.55-28.2 5.25-30.65 6.95-33.1 10.2-34.7 13.45-36.3 18-36.3L18-36.3Q21.15-36.3 23.03-35.52 24.9-34.75 25.75-33.52 26.6-32.3 26.6-30.9L26.6-30.9Q26.6-29.3 25.6-27.73 24.6-26.15 22.73-25.15 20.85-24.15 18.15-24.15L18.15-24.15Q18.95-26.5 18.95-28.05L18.95-28.05Q18.95-29.6 18.3-30.3 17.65-31 16.7-31L16.7-31Q15.7-31 14.58-30.25 13.45-29.5 12.7-28.15 11.95-26.8 11.95-25L11.95-25Q11.95-24.05 12.25-22.88 12.55-21.7 13.2-20.55L13.2-20.55Q14.3-21.25 15.23-21.58 16.15-21.9 16.9-21.9L16.9-21.9Q18.45-21.9 19.15-20.83 19.85-19.75 19.85-18.4L19.85-18.4Q19.85-16.8 18.88-15.35 17.9-13.9 16-13.9L16-13.9Q14.25-13.9 11.9-15.55L11.9-15.55Q9.15-13.6 9.15-10.95L9.15-10.95Q9.15-8.9 10.43-7.85 11.7-6.8 13.7-6.8L13.7-6.8Q16.25-6.8 19.4-8.58 22.55-10.35 25-13.9L25-13.9 25.4-13.65Q25.3-10.15 23.98-7.53 22.65-4.9 20.53-3.15 18.4-1.4 15.8-0.53 13.2 0.35 10.5 0.35ZM40.5 10L40.5 10Q38.05 10 36.45 8.55 34.85 7.1 34.85 4.45L34.85 4.45Q34.85 1.6 36.85-2.25L36.85-2.25Q36.5-2.15 36.15-2.1 35.8-2.05 35.45-2.05L35.45-2.05Q32.55-2.05 30.57-4.58 28.6-7.1 28.6-11.6L28.6-11.6Q28.6-15.65 30.17-18.75 31.75-21.85 34.2-23.6 36.65-25.35 39.3-25.35L39.3-25.35Q41.15-25.35 42.65-24.43 44.15-23.5 45.1-21.45L45.1-21.45Q45.15-21.95 45.15-22.35 45.15-22.75 45.15-23.1L45.15-23.1Q45.15-23.95 46.45-24.5 47.75-25.05 49.35-25.05L49.35-25.05Q50.8-25.05 52.05-24.5 53.3-23.95 53.7-22.65L53.7-22.65 53.8-22.35Q53.35-21.95 53.02-19.75 52.7-17.55 52.25-13.65L52.25-13.65Q51.95-11.2 51.5-8.08 51.05-4.95 50.27-1.78 49.5 1.4 48.25 4.08 47 6.75 45.1 8.38 43.2 10 40.5 10ZM38.85-7.8L38.85-7.8Q40.3-7.8 42.07-10.18 43.85-12.55 44.9-17L44.9-17Q44-18.95 43.07-19.78 42.15-20.6 41.2-20.6L41.2-20.6Q39.95-20.6 38.85-19.35 37.75-18.1 37.07-16.18 36.4-14.25 36.4-12.2L36.4-12.2Q36.4-10.1 37.1-8.95 37.8-7.8 38.85-7.8ZM38.25 4.25L38.25 4.25Q39.95 4.25 41.72 0.93 43.5-2.4 44.2-8.45L44.2-8.45Q40.4-3.3 38.92-0.53 37.45 2.25 37.45 3.4L37.45 3.4Q37.45 4.25 38.25 4.25ZM62.05 0.2L62.05 0.2Q60.25 0.2 58.85-1.28 57.45-2.75 57.45-5.45L57.45-5.45Q57.45-6.75 57.75-8.4 58.05-10.05 58.45-11.78 58.85-13.5 59.15-15.03 59.45-16.55 59.45-17.55L59.45-17.55Q59.45-18.6 59.07-19.23 58.7-19.85 58.1-19.85L58.1-19.85Q57.15-19.85 56.15-18.55L56.15-18.55 55.85-18.75Q55.8-19.55 56.2-20.65 56.6-21.75 57.45-22.78 58.3-23.8 59.62-24.5 60.95-25.2 62.75-25.2L62.75-25.2Q65.4-25.2 66.6-23.68 67.8-22.15 67.8-20L67.8-20Q67.8-19.65 67.77-19.28 67.75-18.9 67.7-18.55L67.7-18.55Q69.5-21.8 71.47-23.53 73.45-25.25 75.15-25.25L75.15-25.25Q76.75-25.25 77.5-24 78.25-22.75 78.25-21L78.25-21Q78.25-19.4 77.62-17.75 77-16.1 75.77-15.03 74.55-13.95 72.8-14L72.8-14 72.6-14.1Q72.55-15.4 71.75-16.15 70.95-16.9 69.95-16.9L69.95-16.9Q68.6-16.9 67.42-15.55 66.25-14.2 66.25-11.65L66.25-11.65Q66.25-10.1 66.6-8.3 66.95-6.5 66.95-5.25L66.95-5.25Q66.95-3.75 66.25-2.5 65.55-1.25 64.45-0.53 63.35 0.2 62.05 0.2ZM90.64 0.35L90.64 0.35Q86.89 0.35 84.44-1.15 81.99-2.65 80.82-5.13 79.64-7.6 79.64-10.4L79.64-10.4Q79.64-13.05 80.62-15.7 81.59-18.35 83.47-20.53 85.34-22.7 88.04-24.03 90.74-25.35 94.24-25.35L94.24-25.35Q97.99-25.35 100.42-23.83 102.84-22.3 104.02-19.8 105.19-17.3 105.19-14.45L105.19-14.45Q105.19-11.85 104.24-9.22 103.29-6.6 101.42-4.42 99.54-2.25 96.84-0.95 94.14 0.35 90.64 0.35ZM91.99-3.9L91.99-3.9Q93.34-3.9 94.24-5.3 95.14-6.7 95.59-8.88 96.04-11.05 96.04-13.3L96.04-13.3Q96.04-15.3 95.67-17.07 95.29-18.85 94.54-19.98 93.79-21.1 92.59-21.1L92.59-21.1Q91.29-21.1 90.37-19.7 89.44-18.3 88.99-16.15 88.54-14 88.54-11.7L88.54-11.7Q88.54-9.7 88.92-7.93 89.29-6.15 90.04-5.03 90.79-3.9 91.99-3.9Z" opacity="1" transform="matrix(1,0,0,1,0,0)" fill="#3d9970" class="wordmark-text-0" data-fill-palette-color="primary" id="text-0"></path></svg></g></svg></g></svg></g></svg></g><g transform="matrix(1,0,0,1,0,1.6447162949784797)"><svg viewBox="0 0 113.41869595445276 171.8667223598278" height="171.8667223598278" width="113.41869595445276"><g><svg xmlns="http://www.w3.org/2000/svg" xmlns:xlink="http://www.w3.org/1999/xlink" version="1.1" x="0" y="0" viewBox="29.256 19.489 41.488 62.867999999999995" enable-background="new 0 0 100 100" xml:space="preserve" height="171.8667223598278" width="113.41869595445276" class="icon-icon-0" data-fill-palette-color="accent" id="icon-0"><g fill="#3d9970" data-fill-palette-color="accent"><path fill="#3d9970" d="M49.789 19.489S29.256 51.647 29.256 64.837C29.256 78.033 40.233 82.357 49.789 82.357 59.342 82.357 70.744 76.888 70.744 64.837 70.744 52.788 49.789 19.489 49.789 19.489M60.842 64.339L51.299 75.641C51.102 75.875 50.846 76.012 50.573 76.1 50.506 76.124 50.436 76.127 50.369 76.143 50.271 76.162 50.182 76.205 50.084 76.205 50.074 76.205 50.062 76.199 50.051 76.199S50.028 76.205 50.018 76.205H50.016C49.864 76.205 49.727 76.158 49.588 76.118 49.574 76.114 49.561 76.115 49.547 76.11 49.49 76.092 49.432 76.089 49.38 76.065 49.328 76.044 49.291 76.002 49.242 75.974A1.6 1.6 0 0 1 48.851 75.677C48.836 75.661 48.816 75.657 48.802 75.64L39.263 64.338A1.59 1.59 0 0 1 39.451 62.099 1.586 1.586 0 0 1 41.688 62.288L48.426 70.272V60.178C48.414 60.165 48.397 60.161 48.386 60.148L42.091 52.682A1.588 1.588 0 0 1 44.519 50.635L48.425 55.268V47.476L44.59 42.93A1.587 1.587 0 1 1 47.017 40.881L48.427 42.553V34.351A1.588 1.588 0 0 1 51.603 34.351V42.637L53.087 40.881A1.587 1.587 0 1 1 55.512 42.93L51.602 47.562V55.353L55.577 50.637A1.589 1.589 0 0 1 58.005 52.684L51.715 60.15C51.684 60.187 51.637 60.201 51.602 60.236V70.358L58.413 62.291A1.588 1.588 0 0 1 60.842 64.339" data-fill-palette-color="accent"></path></g></svg></g></svg></g></svg></g><defs></defs></svg><rect width="395.52" height="125.89344868183017" fill="none" stroke="none" visibility="hidden"></rect></g></svg></g></svg>